<svg xmlns="http://www.w3.org/2000/svg" width="32" height="26" viewBox="0 0 32 26">
  <rect width="32" height="26" fill="#2d2d2d"/>
  <rect width="32" height="1" fill="#ffffff" fill-opacity=".1"/>
  <g fill="#ffffff">
    <circle cx="16" cy="13" r="12" opacity="0.08"/>
    <path d="m16 7a6 6 0 0 0 -6 6 6 6 0 0 0 6 6 6 6 0 0 0 6 -6 6 6 0 0 0 -6 -6zm0 2a4 4 0 0 1 4 4 4 4 0 0 1 -4 4 4 4 0 0 1 -4 -4 4 4 0 0 1 4 -4zm0 2a2 2 0 0 0 -2 2 2 2 0 0 0 2 2 2 2 0 0 0 2 -2 2 2 0 0 0 -2 -2z" opacity=".6"/>
  </g>
</svg>
